<svg width="20" height="20" viewBox="0 0 20 20" fill="none" xmlns="http://www.w3.org/2000/svg">
<path fill-rule="evenodd" clip-rule="evenodd" d="M10 2.5C14.1425 2.5 17.5 5.85875 17.5 10C17.5 14.1425 14.1425 17.5 10 17.5C5.85875 17.5 2.5 14.1425 2.5 10C2.5 5.85875 5.85875 2.5 10 2.5Z" fill="#E12C2C"/>
<path fill-rule="evenodd" clip-rule="evenodd" d="M10 5C10.6904 5 11.25 5.55964 11.25 6.25L11.25 10C11.25 10.6904 10.6904 11.25 10 11.25C9.30964 11.25 8.75 10.6904 8.75 10L8.75 6.25C8.75 5.55964 9.30964 5 10 5ZM10 12.5C10.6904 12.5 11.25 13.0596 11.25 13.75C11.25 14.4404 10.6904 15 10 15C9.30964 15 8.75 14.4404 8.75 13.75C8.75 13.0596 9.30964 12.5 10 12.5Z" fill="white"/>
</svg>
